<svg xmlns="http://www.w3.org/2000/svg" viewBox="0 0 1200 940" role="img" aria-labelledby="title desc">
<title id="title">SO-ARM101 joint trajectories over time</title>
<desc id="desc">Observed state and commanded action trajectories for six SO-ARM101 joints over the first 5.5 seconds of one LeRobot deployment smoke run.</desc>
<rect width="1200" height="940" rx="18" fill="#F5F4EF"/>
<rect x="28" y="28" width="1144" height="884" rx="14" fill="#FFFDF7" stroke="#CBC6B8"/>
<text x="56" y="66" fill="#24231F" font-family="Inter, Arial, sans-serif" font-size="27" font-weight="700">SO-ARM101 joint trajectories</text>
<text x="56" y="94" fill="#6E695F" font-family="JetBrains Mono, Consolas, monospace" font-size="14">165 frames | 30 fps | first 5.5 s of LeRobot deployment</text>
<path d="M 845,60 L 897,60" stroke="#2F6F73" stroke-width="4" fill="none" stroke-linecap="round"/>
<text x="911" y="65" fill="#24231F" font-family="Inter, Arial, sans-serif" font-size="14">observed joint state</text>
<path d="M 845,85 L 897,85" stroke="#B45B3E" stroke-width="4" fill="none" stroke-linecap="round" stroke-dasharray="10 6"/>
<text x="911" y="90" fill="#24231F" font-family="Inter, Arial, sans-serif" font-size="14">commanded action</text>
<rect x="160" y="118" width="992" height="104" rx="8" fill="#FFFFFF" stroke="#CBC6B8"/>
<line x1="160" y1="144.0" x2="1152" y2="144.0" stroke="#D8D5CA" stroke-width="1" opacity="0.65"/>
<line x1="160" y1="170.0" x2="1152" y2="170.0" stroke="#D8D5CA" stroke-width="1" opacity="0.65"/>
<line x1="160" y1="196.0" x2="1152" y2="196.0" stroke="#D8D5CA" stroke-width="1" opacity="0.65"/>
<line x1="160.0" y1="118" x2="160.0" y2="222" stroke="#D8D5CA" stroke-width="1" opacity="0.65"/>
<line x1="340.4" y1="118" x2="340.4" y2="222" stroke="#D8D5CA" stroke-width="1" opacity="0.65"/>
<line x1="520.7" y1="118" x2="520.7" y2="222" stroke="#D8D5CA" stroke-width="1" opacity="0.65"/>
<line x1="701.1" y1="118" x2="701.1" y2="222" stroke="#D8D5CA" stroke-width="1" opacity="0.65"/>
<line x1="881.5" y1="118" x2="881.5" y2="222" stroke="#D8D5CA" stroke-width="1" opacity="0.65"/>
<line x1="1061.8" y1="118" x2="1061.8" y2="222" stroke="#D8D5CA" stroke-width="1" opacity="0.65"/>
<line x1="1152.0" y1="118" x2="1152.0" y2="222" stroke="#D8D5CA" stroke-width="1" opacity="0.65"/>
<text x="142" y="152" fill="#24231F" font-family="Inter, Arial, sans-serif" font-size="16" font-weight="700" text-anchor="end">shoulder pan</text>
<text x="142" y="173" fill="#6E695F" font-family="JetBrains Mono, Consolas, monospace" font-size="11" text-anchor="end">shoulder_pan.pos</text>
<path d="M 160.0,179.1 L 166.0,179.1 L 172.0,179.1 L 178.0,179.4 L 184.0,179.4 L 190.1,179.1 L 196.1,179.4 L 202.1,179.4 L 208.1,179.4 L 214.1,179.4 L 220.1,179.4 L 226.1,179.4 L 232.1,179.4 L 238.2,179.4 L 244.2,179.4 L 250.2,179.4 L 256.2,179.4 L 262.2,179.6 L 268.2,181.1 L 274.2,182.4 L 280.2,183.6 L 286.3,184.4 L 292.3,185.1 L 298.3,186.6 L 304.3,188.1 L 310.3,189.1 L 316.3,190.1 L 322.3,190.3 L 328.3,190.8 L 334.4,191.6 L 340.4,192.6 L 346.4,193.3 L 352.4,193.8 L 358.4,194.5 L 364.4,194.8 L 370.4,195.0 L 376.4,195.8 L 382.4,196.5 L 388.5,197.0 L 394.5,197.0 L 400.5,197.0 L 406.5,197.0 L 412.5,197.3 L 418.5,197.3 L 424.5,197.8 L 430.5,198.5 L 436.6,199.0 L 442.6,199.3 L 448.6,199.8 L 454.6,200.3 L 460.6,200.7 L 466.6,201.0 L 472.6,201.0 L 478.6,201.0 L 484.7,201.0 L 490.7,201.0 L 496.7,201.0 L 502.7,201.0 L 508.7,201.0 L 514.7,201.0 L 520.7,201.0 L 526.7,201.0 L 532.8,201.0 L 538.8,201.5 L 544.8,202.5 L 550.8,202.5 L 556.8,202.5 L 562.8,202.5 L 568.8,202.5 L 574.8,202.5 L 580.8,202.5 L 586.9,202.5 L 592.9,202.5 L 598.9,202.5 L 604.9,202.5 L 610.9,202.5 L 616.9,202.5 L 622.9,202.5 L 628.9,202.5 L 635.0,202.5 L 641.0,202.5 L 647.0,202.5 L 653.0,202.5 L 659.0,202.5 L 665.0,202.5 L 671.0,202.5 L 677.0,202.5 L 683.1,202.5 L 689.1,203.2 L 695.1,204.5 L 701.1,205.7 L 707.1,207.0 L 713.1,208.0 L 719.1,209.2 L 725.1,209.9 L 731.2,210.2 L 737.2,210.4 L 743.2,210.4 L 749.2,210.4 L 755.2,210.4 L 761.2,210.4 L 767.2,210.4 L 773.2,210.4 L 779.2,207.5 L 785.3,196.8 L 791.3,193.0 L 797.3,190.6 L 803.3,188.6 L 809.3,186.1 L 815.3,183.6 L 821.3,180.4 L 827.3,177.9 L 833.4,176.2 L 839.4,174.7 L 845.4,173.2 L 851.4,171.2 L 857.4,168.7 L 863.4,166.5 L 869.4,164.7 L 875.4,163.0 L 881.5,160.5 L 887.5,158.0 L 893.5,156.0 L 899.5,154.0 L 905.5,150.8 L 911.5,149.1 L 917.5,147.3 L 923.5,145.8 L 929.6,144.9 L 935.6,143.4 L 941.6,141.9 L 947.6,140.9 L 953.6,139.9 L 959.6,139.6 L 965.6,138.4 L 971.6,138.4 L 977.6,138.4 L 983.7,137.4 L 989.7,136.4 L 995.7,136.2 L 1001.7,135.4 L 1007.7,135.2 L 1013.7,134.9 L 1019.7,134.4 L 1025.7,133.9 L 1031.8,133.9 L 1037.8,133.4 L 1043.8,133.2 L 1049.8,133.2 L 1055.8,133.2 L 1061.8,131.9 L 1067.8,131.4 L 1073.8,131.4 L 1079.9,131.7 L 1085.9,132.4 L 1091.9,132.7 L 1097.9,132.7 L 1103.9,132.4 L 1109.9,132.2 L 1115.9,132.4 L 1121.9,132.9 L 1128.0,133.2 L 1134.0,133.2 L 1140.0,133.2 L 1146.0,133.2" stroke="#2F6F73" stroke-width="2.4" fill="none" stroke-linejoin="round" stroke-linecap="round"/>
<path d="M 160.0,180.0 L 166.0,180.0 L 172.0,178.6 L 178.0,179.3 L 184.0,178.8 L 190.1,178.3 L 196.1,178.8 L 202.1,178.2 L 208.1,178.9 L 214.1,179.3 L 220.1,178.8 L 226.1,179.7 L 232.1,180.6 L 238.2,180.1 L 244.2,182.1 L 250.2,182.3 L 256.2,183.2 L 262.2,183.9 L 268.2,185.9 L 274.2,186.5 L 280.2,187.8 L 286.3,189.0 L 292.3,189.8 L 298.3,191.1 L 304.3,190.9 L 310.3,191.5 L 316.3,192.6 L 322.3,192.8 L 328.3,193.7 L 334.4,194.7 L 340.4,195.3 L 346.4,195.0 L 352.4,196.0 L 358.4,196.9 L 364.4,196.9 L 370.4,197.6 L 376.4,197.6 L 382.4,198.0 L 388.5,198.7 L 394.5,198.5 L 400.5,199.4 L 406.5,199.4 L 412.5,200.1 L 418.5,199.9 L 424.5,200.5 L 430.5,200.6 L 436.6,200.5 L 442.6,201.5 L 448.6,201.2 L 454.6,201.4 L 460.6,201.0 L 466.6,201.7 L 472.6,201.7 L 478.6,202.0 L 484.7,202.1 L 490.7,202.6 L 496.7,202.9 L 502.7,202.6 L 508.7,202.8 L 514.7,203.1 L 520.7,202.8 L 526.7,203.4 L 532.8,203.2 L 538.8,203.1 L 544.8,202.9 L 550.8,202.9 L 556.8,202.7 L 562.8,202.5 L 568.8,202.2 L 574.8,202.2 L 580.8,202.1 L 586.9,202.2 L 592.9,202.0 L 598.9,201.7 L 604.9,201.7 L 610.9,201.8 L 616.9,201.6 L 622.9,201.7 L 628.9,201.7 L 635.0,202.0 L 641.0,202.2 L 647.0,202.3 L 653.0,202.7 L 659.0,203.6 L 665.0,204.0 L 671.0,205.5 L 677.0,206.4 L 683.1,207.6 L 689.1,208.5 L 695.1,209.5 L 701.1,210.5 L 707.1,210.9 L 713.1,210.7 L 719.1,210.8 L 725.1,211.9 L 731.2,211.3 L 737.2,210.4 L 743.2,210.0 L 749.2,210.2 L 755.2,208.7 L 761.2,194.3 L 767.2,192.0 L 773.2,188.6 L 779.2,186.4 L 785.3,183.7 L 791.3,181.7 L 797.3,178.9 L 803.3,177.4 L 809.3,176.0 L 815.3,172.9 L 821.3,171.1 L 827.3,170.6 L 833.4,167.2 L 839.4,167.1 L 845.4,164.6 L 851.4,162.2 L 857.4,160.8 L 863.4,157.5 L 869.4,156.0 L 875.4,154.0 L 881.5,151.4 L 887.5,149.2 L 893.5,147.5 L 899.5,145.5 L 905.5,144.2 L 911.5,143.2 L 917.5,141.7 L 923.5,140.3 L 929.6,139.6 L 935.6,138.5 L 941.6,137.3 L 947.6,135.9 L 953.6,135.8 L 959.6,134.9 L 965.6,134.1 L 971.6,132.9 L 977.6,133.4 L 983.7,132.5 L 989.7,132.2 L 995.7,132.0 L 1001.7,131.2 L 1007.7,131.3 L 1013.7,131.1 L 1019.7,130.8 L 1025.7,130.8 L 1031.8,130.5 L 1037.8,130.2 L 1043.8,131.2 L 1049.8,130.9 L 1055.8,130.9 L 1061.8,131.3 L 1067.8,131.5 L 1073.8,131.9 L 1079.9,131.2 L 1085.9,131.2 L 1091.9,130.5 L 1097.9,130.4 L 1103.9,130.1 L 1109.9,129.6 L 1115.9,129.2 L 1121.9,128.9 L 1128.0,128.9 L 1134.0,128.2 L 1140.0,128.2 L 1146.0,128.1" stroke="#B45B3E" stroke-width="2.1" fill="none" stroke-linejoin="round" stroke-linecap="round" stroke-dasharray="8 5" opacity="0.9"/>
<rect x="160" y="240" width="992" height="104" rx="8" fill="#FFFFFF" stroke="#CBC6B8"/>
<line x1="160" y1="266.0" x2="1152" y2="266.0" stroke="#D8D5CA" stroke-width="1" opacity="0.65"/>
<line x1="160" y1="292.0" x2="1152" y2="292.0" stroke="#D8D5CA" stroke-width="1" opacity="0.65"/>
<line x1="160" y1="318.0" x2="1152" y2="318.0" stroke="#D8D5CA" stroke-width="1" opacity="0.65"/>
<line x1="160.0" y1="240" x2="160.0" y2="344" stroke="#D8D5CA" stroke-width="1" opacity="0.65"/>
<line x1="340.4" y1="240" x2="340.4" y2="344" stroke="#D8D5CA" stroke-width="1" opacity="0.65"/>
<line x1="520.7" y1="240" x2="520.7" y2="344" stroke="#D8D5CA" stroke-width="1" opacity="0.65"/>
<line x1="701.1" y1="240" x2="701.1" y2="344" stroke="#D8D5CA" stroke-width="1" opacity="0.65"/>
<line x1="881.5" y1="240" x2="881.5" y2="344" stroke="#D8D5CA" stroke-width="1" opacity="0.65"/>
<line x1="1061.8" y1="240" x2="1061.8" y2="344" stroke="#D8D5CA" stroke-width="1" opacity="0.65"/>
<line x1="1152.0" y1="240" x2="1152.0" y2="344" stroke="#D8D5CA" stroke-width="1" opacity="0.65"/>
<text x="142" y="274" fill="#24231F" font-family="Inter, Arial, sans-serif" font-size="16" font-weight="700" text-anchor="end">shoulder lift</text>
<text x="142" y="295" fill="#6E695F" font-family="JetBrains Mono, Consolas, monospace" font-size="11" text-anchor="end">shoulder_lift.pos</text>
<path d="M 160.0,333.9 L 166.0,333.9 L 172.0,333.9 L 178.0,333.2 L 184.0,331.1 L 190.1,328.0 L 196.1,324.7 L 202.1,321.7 L 208.1,319.9 L 214.1,318.9 L 220.1,318.2 L 226.1,317.5 L 232.1,317.1 L 238.2,316.7 L 244.2,316.7 L 250.2,316.6 L 256.2,316.4 L 262.2,315.9 L 268.2,315.4 L 274.2,314.8 L 280.2,314.0 L 286.3,313.7 L 292.3,313.3 L 298.3,312.7 L 304.3,312.0 L 310.3,311.4 L 316.3,310.8 L 322.3,310.2 L 328.3,309.6 L 334.4,308.8 L 340.4,308.2 L 346.4,307.7 L 352.4,307.1 L 358.4,306.4 L 364.4,305.9 L 370.4,305.5 L 376.4,304.8 L 382.4,304.3 L 388.5,304.0 L 394.5,303.5 L 400.5,302.8 L 406.5,302.3 L 412.5,302.0 L 418.5,301.6 L 424.5,301.3 L 430.5,301.0 L 436.6,300.8 L 442.6,300.5 L 448.6,300.3 L 454.6,300.0 L 460.6,299.8 L 466.6,299.6 L 472.6,299.5 L 478.6,299.4 L 484.7,299.3 L 490.7,299.3 L 496.7,299.0 L 502.7,298.9 L 508.7,298.9 L 514.7,298.8 L 520.7,298.8 L 526.7,298.8 L 532.8,298.8 L 538.8,298.8 L 544.8,298.8 L 550.8,298.8 L 556.8,298.8 L 562.8,298.8 L 568.8,298.9 L 574.8,298.9 L 580.8,298.9 L 586.9,298.9 L 592.9,298.9 L 598.9,298.9 L 604.9,298.9 L 610.9,298.9 L 616.9,298.9 L 622.9,298.9 L 628.9,299.1 L 635.0,299.3 L 641.0,299.5 L 647.0,300.0 L 653.0,300.6 L 659.0,301.3 L 665.0,302.2 L 671.0,303.0 L 677.0,303.8 L 683.1,304.4 L 689.1,305.0 L 695.1,305.9 L 701.1,306.7 L 707.1,307.5 L 713.1,308.1 L 719.1,308.4 L 725.1,308.5 L 731.2,308.5 L 737.2,308.5 L 743.2,308.5 L 749.2,308.3 L 755.2,307.8 L 761.2,307.1 L 767.2,306.5 L 773.2,305.7 L 779.2,304.7 L 785.3,302.8 L 791.3,302.1 L 797.3,301.3 L 803.3,299.9 L 809.3,298.5 L 815.3,297.0 L 821.3,295.1 L 827.3,293.5 L 833.4,292.0 L 839.4,290.7 L 845.4,289.5 L 851.4,288.2 L 857.4,286.6 L 863.4,284.9 L 869.4,283.3 L 875.4,281.8 L 881.5,279.5 L 887.5,277.7 L 893.5,276.5 L 899.5,275.1 L 905.5,272.5 L 911.5,271.2 L 917.5,270.0 L 923.5,268.6 L 929.6,267.4 L 935.6,266.0 L 941.6,264.6 L 947.6,263.5 L 953.6,262.5 L 959.6,261.5 L 965.6,259.6 L 971.6,258.9 L 977.6,258.1 L 983.7,257.0 L 989.7,256.0 L 995.7,255.6 L 1001.7,255.0 L 1007.7,254.2 L 1013.7,253.6 L 1019.7,253.0 L 1025.7,252.7 L 1031.8,252.3 L 1037.8,251.9 L 1043.8,251.6 L 1049.8,250.9 L 1055.8,250.4 L 1061.8,250.1 L 1067.8,250.1 L 1073.8,250.1 L 1079.9,250.1 L 1085.9,250.1 L 1091.9,250.1 L 1097.9,250.1 L 1103.9,250.1 L 1109.9,250.1 L 1115.9,250.1 L 1121.9,250.1 L 1128.0,250.1 L 1134.0,250.1 L 1140.0,250.1 L 1146.0,250.1" stroke="#2F6F73" stroke-width="2.4" fill="none" stroke-linejoin="round" stroke-linecap="round"/>
<path d="M 160.0,318.6 L 166.0,318.1 L 172.0,317.9 L 178.0,317.9 L 184.0,317.6 L 190.1,317.3 L 196.1,317.1 L 202.1,317.1 L 208.1,316.7 L 214.1,316.3 L 220.1,316.0 L 226.1,316.4 L 232.1,316.4 L 238.2,315.8 L 244.2,315.0 L 250.2,315.1 L 256.2,314.2 L 262.2,313.2 L 268.2,313.4 L 274.2,312.3 L 280.2,312.0 L 286.3,311.0 L 292.3,310.6 L 298.3,310.2 L 304.3,309.2 L 310.3,308.8 L 316.3,307.9 L 322.3,307.7 L 328.3,306.6 L 334.4,306.4 L 340.4,305.6 L 346.4,305.5 L 352.4,305.0 L 358.4,303.6 L 364.4,303.7 L 370.4,303.5 L 376.4,302.4 L 382.4,302.1 L 388.5,301.6 L 394.5,301.6 L 400.5,301.2 L 406.5,301.0 L 412.5,300.7 L 418.5,300.6 L 424.5,300.2 L 430.5,300.2 L 436.6,299.8 L 442.6,299.5 L 448.6,299.5 L 454.6,299.3 L 460.6,299.3 L 466.6,299.0 L 472.6,299.4 L 478.6,298.8 L 484.7,298.7 L 490.7,299.0 L 496.7,299.0 L 502.7,298.7 L 508.7,298.7 L 514.7,298.9 L 520.7,298.9 L 526.7,299.2 L 532.8,299.2 L 538.8,299.4 L 544.8,299.2 L 550.8,299.1 L 556.8,299.2 L 562.8,299.3 L 568.8,298.9 L 574.8,299.1 L 580.8,299.1 L 586.9,299.0 L 592.9,299.2 L 598.9,299.3 L 604.9,299.5 L 610.9,299.7 L 616.9,300.1 L 622.9,300.1 L 628.9,301.1 L 635.0,302.0 L 641.0,302.9 L 647.0,304.2 L 653.0,304.8 L 659.0,306.3 L 665.0,306.0 L 671.0,307.6 L 677.0,308.2 L 683.1,308.9 L 689.1,309.4 L 695.1,309.8 L 701.1,309.8 L 707.1,309.6 L 713.1,309.1 L 719.1,308.8 L 725.1,308.9 L 731.2,308.1 L 737.2,307.4 L 743.2,306.3 L 749.2,306.3 L 755.2,305.0 L 761.2,303.9 L 767.2,303.0 L 773.2,301.7 L 779.2,300.2 L 785.3,298.5 L 791.3,297.0 L 797.3,295.1 L 803.3,293.9 L 809.3,292.5 L 815.3,290.5 L 821.3,289.5 L 827.3,288.6 L 833.4,286.2 L 839.4,285.8 L 845.4,283.9 L 851.4,282.1 L 857.4,280.9 L 863.4,278.7 L 869.4,277.3 L 875.4,276.1 L 881.5,274.0 L 887.5,272.4 L 893.5,271.2 L 899.5,269.8 L 905.5,268.5 L 911.5,267.5 L 917.5,265.9 L 923.5,264.7 L 929.6,263.9 L 935.6,262.8 L 941.6,261.6 L 947.6,259.5 L 953.6,259.3 L 959.6,258.3 L 965.6,257.1 L 971.6,255.6 L 977.6,255.9 L 983.7,254.6 L 989.7,253.9 L 995.7,253.4 L 1001.7,252.9 L 1007.7,252.8 L 1013.7,252.2 L 1019.7,252.0 L 1025.7,251.9 L 1031.8,251.6 L 1037.8,251.6 L 1043.8,251.6 L 1049.8,251.7 L 1055.8,251.9 L 1061.8,252.0 L 1067.8,252.1 L 1073.8,252.2 L 1079.9,252.2 L 1085.9,252.2 L 1091.9,252.1 L 1097.9,252.0 L 1103.9,252.1 L 1109.9,252.4 L 1115.9,252.4 L 1121.9,252.8 L 1128.0,253.1 L 1134.0,253.7 L 1140.0,254.1 L 1146.0,254.2" stroke="#B45B3E" stroke-width="2.1" fill="none" stroke-linejoin="round" stroke-linecap="round" stroke-dasharray="8 5" opacity="0.9"/>
<rect x="160" y="362" width="992" height="104" rx="8" fill="#FFFFFF" stroke="#CBC6B8"/>
<line x1="160" y1="388.0" x2="1152" y2="388.0" stroke="#D8D5CA" stroke-width="1" opacity="0.65"/>
<line x1="160" y1="414.0" x2="1152" y2="414.0" stroke="#D8D5CA" stroke-width="1" opacity="0.65"/>
<line x1="160" y1="440.0" x2="1152" y2="440.0" stroke="#D8D5CA" stroke-width="1" opacity="0.65"/>
<line x1="160.0" y1="362" x2="160.0" y2="466" stroke="#D8D5CA" stroke-width="1" opacity="0.65"/>
<line x1="340.4" y1="362" x2="340.4" y2="466" stroke="#D8D5CA" stroke-width="1" opacity="0.65"/>
<line x1="520.7" y1="362" x2="520.7" y2="466" stroke="#D8D5CA" stroke-width="1" opacity="0.65"/>
<line x1="701.1" y1="362" x2="701.1" y2="466" stroke="#D8D5CA" stroke-width="1" opacity="0.65"/>
<line x1="881.5" y1="362" x2="881.5" y2="466" stroke="#D8D5CA" stroke-width="1" opacity="0.65"/>
<line x1="1061.8" y1="362" x2="1061.8" y2="466" stroke="#D8D5CA" stroke-width="1" opacity="0.65"/>
<line x1="1152.0" y1="362" x2="1152.0" y2="466" stroke="#D8D5CA" stroke-width="1" opacity="0.65"/>
<text x="142" y="396" fill="#24231F" font-family="Inter, Arial, sans-serif" font-size="16" font-weight="700" text-anchor="end">elbow flex</text>
<text x="142" y="417" fill="#6E695F" font-family="JetBrains Mono, Consolas, monospace" font-size="11" text-anchor="end">elbow_flex.pos</text>
<path d="M 160.0,372.1 L 166.0,372.1 L 172.0,372.1 L 178.0,372.7 L 184.0,373.4 L 190.1,373.7 L 196.1,373.7 L 202.1,373.7 L 208.1,373.6 L 214.1,373.7 L 220.1,373.7 L 226.1,373.7 L 232.1,373.7 L 238.2,373.7 L 244.2,373.7 L 250.2,373.7 L 256.2,373.7 L 262.2,373.7 L 268.2,373.7 L 274.2,373.7 L 280.2,373.7 L 286.3,373.7 L 292.3,373.7 L 298.3,373.7 L 304.3,373.7 L 310.3,373.7 L 316.3,373.7 L 322.3,373.7 L 328.3,373.7 L 334.4,373.7 L 340.4,373.7 L 346.4,373.7 L 352.4,373.7 L 358.4,373.7 L 364.4,373.7 L 370.4,373.7 L 376.4,373.7 L 382.4,373.7 L 388.5,373.7 L 394.5,373.7 L 400.5,373.7 L 406.5,373.7 L 412.5,373.7 L 418.5,373.7 L 424.5,373.7 L 430.5,373.7 L 436.6,373.7 L 442.6,373.7 L 448.6,373.7 L 454.6,373.7 L 460.6,373.7 L 466.6,373.7 L 472.6,373.7 L 478.6,373.7 L 484.7,373.7 L 490.7,373.7 L 496.7,373.7 L 502.7,373.7 L 508.7,373.7 L 514.7,373.7 L 520.7,373.7 L 526.7,373.7 L 532.8,373.7 L 538.8,373.7 L 544.8,373.7 L 550.8,373.7 L 556.8,373.7 L 562.8,373.8 L 568.8,373.8 L 574.8,373.8 L 580.8,373.8 L 586.9,373.8 L 592.9,373.8 L 598.9,373.8 L 604.9,373.8 L 610.9,373.8 L 616.9,373.8 L 622.9,373.8 L 628.9,373.8 L 635.0,373.8 L 641.0,373.8 L 647.0,373.8 L 653.0,373.8 L 659.0,373.8 L 665.0,373.8 L 671.0,373.8 L 677.0,374.3 L 683.1,374.7 L 689.1,375.4 L 695.1,376.0 L 701.1,376.7 L 707.1,377.5 L 713.1,378.5 L 719.1,380.0 L 725.1,381.2 L 731.2,382.5 L 737.2,383.8 L 743.2,385.2 L 749.2,386.6 L 755.2,388.2 L 761.2,390.0 L 767.2,391.9 L 773.2,393.6 L 779.2,395.8 L 785.3,400.1 L 791.3,401.9 L 797.3,403.3 L 803.3,405.5 L 809.3,407.2 L 815.3,409.0 L 821.3,411.2 L 827.3,413.1 L 833.4,414.6 L 839.4,416.0 L 845.4,417.4 L 851.4,418.7 L 857.4,420.4 L 863.4,422.1 L 869.4,423.7 L 875.4,425.2 L 881.5,427.4 L 887.5,429.2 L 893.5,430.2 L 899.5,431.4 L 905.5,433.9 L 911.5,435.0 L 917.5,435.7 L 923.5,437.0 L 929.6,437.8 L 935.6,438.9 L 941.6,439.9 L 947.6,440.7 L 953.6,441.3 L 959.6,442.3 L 965.6,444.5 L 971.6,445.1 L 977.6,445.5 L 983.7,446.7 L 989.7,448.2 L 995.7,449.1 L 1001.7,449.8 L 1007.7,450.9 L 1013.7,451.9 L 1019.7,452.6 L 1025.7,453.1 L 1031.8,453.4 L 1037.8,453.7 L 1043.8,453.7 L 1049.8,453.6 L 1055.8,453.6 L 1061.8,453.6 L 1067.8,453.6 L 1073.8,453.6 L 1079.9,453.6 L 1085.9,453.6 L 1091.9,453.6 L 1097.9,453.6 L 1103.9,453.6 L 1109.9,453.6 L 1115.9,453.7 L 1121.9,453.7 L 1128.0,453.7 L 1134.0,453.7 L 1140.0,453.7 L 1146.0,453.7" stroke="#2F6F73" stroke-width="2.4" fill="none" stroke-linejoin="round" stroke-linecap="round"/>
<path d="M 160.0,377.5 L 166.0,377.1 L 172.0,377.0 L 178.0,377.0 L 184.0,376.8 L 190.1,376.7 L 196.1,376.3 L 202.1,376.5 L 208.1,376.3 L 214.1,376.2 L 220.1,376.1 L 226.1,376.2 L 232.1,376.0 L 238.2,376.1 L 244.2,375.8 L 250.2,375.8 L 256.2,375.8 L 262.2,375.8 L 268.2,375.7 L 274.2,375.8 L 280.2,375.9 L 286.3,375.9 L 292.3,375.8 L 298.3,375.8 L 304.3,376.0 L 310.3,376.1 L 316.3,376.1 L 322.3,376.1 L 328.3,376.1 L 334.4,375.9 L 340.4,376.0 L 346.4,376.2 L 352.4,376.2 L 358.4,376.1 L 364.4,376.2 L 370.4,376.2 L 376.4,376.3 L 382.4,376.4 L 388.5,376.3 L 394.5,376.5 L 400.5,376.4 L 406.5,376.4 L 412.5,376.5 L 418.5,376.3 L 424.5,376.4 L 430.5,376.5 L 436.6,376.4 L 442.6,376.4 L 448.6,376.3 L 454.6,376.2 L 460.6,376.4 L 466.6,376.4 L 472.6,376.3 L 478.6,376.4 L 484.7,376.1 L 490.7,376.1 L 496.7,376.2 L 502.7,376.2 L 508.7,376.1 L 514.7,376.1 L 520.7,376.0 L 526.7,376.0 L 532.8,376.1 L 538.8,375.9 L 544.8,376.0 L 550.8,375.8 L 556.8,376.1 L 562.8,376.1 L 568.8,376.0 L 574.8,375.9 L 580.8,376.0 L 586.9,376.0 L 592.9,376.1 L 598.9,376.2 L 604.9,376.3 L 610.9,376.3 L 616.9,376.5 L 622.9,376.8 L 628.9,377.3 L 635.0,377.8 L 641.0,378.2 L 647.0,379.0 L 653.0,379.4 L 659.0,380.1 L 665.0,380.7 L 671.0,381.2 L 677.0,382.2 L 683.1,383.2 L 689.1,383.8 L 695.1,385.5 L 701.1,387.5 L 707.1,388.1 L 713.1,390.7 L 719.1,391.7 L 725.1,392.8 L 731.2,395.3 L 737.2,396.5 L 743.2,399.5 L 749.2,400.0 L 755.2,402.0 L 761.2,405.8 L 767.2,407.5 L 773.2,409.8 L 779.2,411.9 L 785.3,414.0 L 791.3,415.6 L 797.3,418.2 L 803.3,419.3 L 809.3,420.9 L 815.3,422.9 L 821.3,424.1 L 827.3,424.9 L 833.4,427.3 L 839.4,427.9 L 845.4,429.8 L 851.4,431.6 L 857.4,432.6 L 863.4,434.9 L 869.4,436.1 L 875.4,437.2 L 881.5,438.9 L 887.5,440.2 L 893.5,441.4 L 899.5,442.5 L 905.5,443.5 L 911.5,444.2 L 917.5,445.5 L 923.5,446.0 L 929.6,446.8 L 935.6,447.4 L 941.6,448.3 L 947.6,449.7 L 953.6,449.7 L 959.6,450.5 L 965.6,451.3 L 971.6,452.4 L 977.6,452.3 L 983.7,453.2 L 989.7,453.8 L 995.7,454.1 L 1001.7,454.6 L 1007.7,454.6 L 1013.7,455.0 L 1019.7,455.2 L 1025.7,455.3 L 1031.8,455.4 L 1037.8,455.4 L 1043.8,455.3 L 1049.8,455.1 L 1055.8,454.8 L 1061.8,454.6 L 1067.8,454.5 L 1073.8,454.5 L 1079.9,454.3 L 1085.9,454.3 L 1091.9,454.4 L 1097.9,454.6 L 1103.9,454.8 L 1109.9,455.2 L 1115.9,455.2 L 1121.9,455.5 L 1128.0,455.7 L 1134.0,455.7 L 1140.0,455.8 L 1146.0,455.9" stroke="#B45B3E" stroke-width="2.1" fill="none" stroke-linejoin="round" stroke-linecap="round" stroke-dasharray="8 5" opacity="0.9"/>
<rect x="160" y="484" width="992" height="104" rx="8" fill="#FFFFFF" stroke="#CBC6B8"/>
<line x1="160" y1="510.0" x2="1152" y2="510.0" stroke="#D8D5CA" stroke-width="1" opacity="0.65"/>
<line x1="160" y1="536.0" x2="1152" y2="536.0" stroke="#D8D5CA" stroke-width="1" opacity="0.65"/>
<line x1="160" y1="562.0" x2="1152" y2="562.0" stroke="#D8D5CA" stroke-width="1" opacity="0.65"/>
<line x1="160.0" y1="484" x2="160.0" y2="588" stroke="#D8D5CA" stroke-width="1" opacity="0.65"/>
<line x1="340.4" y1="484" x2="340.4" y2="588" stroke="#D8D5CA" stroke-width="1" opacity="0.65"/>
<line x1="520.7" y1="484" x2="520.7" y2="588" stroke="#D8D5CA" stroke-width="1" opacity="0.65"/>
<line x1="701.1" y1="484" x2="701.1" y2="588" stroke="#D8D5CA" stroke-width="1" opacity="0.65"/>
<line x1="881.5" y1="484" x2="881.5" y2="588" stroke="#D8D5CA" stroke-width="1" opacity="0.65"/>
<line x1="1061.8" y1="484" x2="1061.8" y2="588" stroke="#D8D5CA" stroke-width="1" opacity="0.65"/>
<line x1="1152.0" y1="484" x2="1152.0" y2="588" stroke="#D8D5CA" stroke-width="1" opacity="0.65"/>
<text x="142" y="518" fill="#24231F" font-family="Inter, Arial, sans-serif" font-size="16" font-weight="700" text-anchor="end">wrist flex</text>
<text x="142" y="539" fill="#6E695F" font-family="JetBrains Mono, Consolas, monospace" font-size="11" text-anchor="end">wrist_flex.pos</text>
<path d="M 160.0,494.1 L 166.0,494.1 L 172.0,494.1 L 178.0,495.8 L 184.0,497.5 L 190.1,499.6 L 196.1,500.9 L 202.1,502.0 L 208.1,502.3 L 214.1,502.7 L 220.1,503.4 L 226.1,504.7 L 232.1,506.4 L 238.2,507.5 L 244.2,507.1 L 250.2,508.5 L 256.2,508.9 L 262.2,510.9 L 268.2,512.3 L 274.2,514.7 L 280.2,517.8 L 286.3,519.5 L 292.3,522.6 L 298.3,526.1 L 304.3,529.1 L 310.3,531.6 L 316.3,534.7 L 322.3,537.1 L 328.3,538.8 L 334.4,541.9 L 340.4,543.9 L 346.4,546.3 L 352.4,547.7 L 358.4,549.8 L 364.4,551.2 L 370.4,551.8 L 376.4,553.6 L 382.4,554.3 L 388.5,555.6 L 394.5,556.7 L 400.5,557.4 L 406.5,557.4 L 412.5,557.4 L 418.5,557.4 L 424.5,557.4 L 430.5,557.4 L 436.6,557.4 L 442.6,557.4 L 448.6,557.4 L 454.6,557.4 L 460.6,557.4 L 466.6,557.4 L 472.6,557.7 L 478.6,558.4 L 484.7,559.4 L 490.7,559.4 L 496.7,559.4 L 502.7,559.4 L 508.7,559.4 L 514.7,559.4 L 520.7,559.4 L 526.7,559.4 L 532.8,559.4 L 538.8,559.4 L 544.8,559.4 L 550.8,559.4 L 556.8,559.4 L 562.8,559.4 L 568.8,559.4 L 574.8,559.4 L 580.8,559.4 L 586.9,559.4 L 592.9,559.4 L 598.9,559.4 L 604.9,559.4 L 610.9,559.4 L 616.9,559.4 L 622.9,559.4 L 628.9,559.4 L 635.0,559.4 L 641.0,559.4 L 647.0,561.1 L 653.0,563.2 L 659.0,565.6 L 665.0,568.0 L 671.0,569.0 L 677.0,569.7 L 683.1,570.1 L 689.1,569.7 L 695.1,569.7 L 701.1,569.0 L 707.1,567.3 L 713.1,563.9 L 719.1,559.1 L 725.1,556.3 L 731.2,552.2 L 737.2,548.4 L 743.2,545.0 L 749.2,540.8 L 755.2,537.1 L 761.2,533.3 L 767.2,529.8 L 773.2,528.1 L 779.2,530.5 L 785.3,538.8 L 791.3,540.8 L 797.3,541.5 L 803.3,541.5 L 809.3,541.5 L 815.3,541.5 L 821.3,541.5 L 827.3,541.5 L 833.4,541.5 L 839.4,541.5 L 845.4,541.5 L 851.4,541.5 L 857.4,541.5 L 863.4,541.5 L 869.4,541.5 L 875.4,541.5 L 881.5,541.5 L 887.5,541.5 L 893.5,541.5 L 899.5,541.5 L 905.5,541.5 L 911.5,541.5 L 917.5,541.5 L 923.5,541.5 L 929.6,541.5 L 935.6,541.5 L 941.6,541.5 L 947.6,541.5 L 953.6,540.8 L 959.6,539.8 L 965.6,538.8 L 971.6,538.4 L 977.6,538.4 L 983.7,539.1 L 989.7,540.5 L 995.7,540.5 L 1001.7,540.5 L 1007.7,540.8 L 1013.7,540.8 L 1019.7,540.8 L 1025.7,540.8 L 1031.8,540.8 L 1037.8,540.8 L 1043.8,539.1 L 1049.8,538.4 L 1055.8,538.1 L 1061.8,538.1 L 1067.8,538.1 L 1073.8,538.1 L 1079.9,538.1 L 1085.9,538.8 L 1091.9,539.8 L 1097.9,541.2 L 1103.9,542.9 L 1109.9,544.3 L 1115.9,546.0 L 1121.9,548.1 L 1128.0,550.5 L 1134.0,552.5 L 1140.0,554.6 L 1146.0,556.7" stroke="#2F6F73" stroke-width="2.4" fill="none" stroke-linejoin="round" stroke-linecap="round"/>
<path d="M 160.0,501.1 L 166.0,503.4 L 172.0,505.4 L 178.0,506.3 L 184.0,507.1 L 190.1,509.3 L 196.1,507.7 L 202.1,508.0 L 208.1,510.3 L 214.1,513.1 L 220.1,513.5 L 226.1,510.2 L 232.1,512.3 L 238.2,513.3 L 244.2,517.7 L 250.2,516.8 L 256.2,522.8 L 262.2,525.9 L 268.2,525.8 L 274.2,531.6 L 280.2,534.9 L 286.3,537.4 L 292.3,538.5 L 298.3,541.9 L 304.3,545.2 L 310.3,545.5 L 316.3,549.2 L 322.3,550.9 L 328.3,553.8 L 334.4,554.5 L 340.4,555.4 L 346.4,557.1 L 352.4,557.3 L 358.4,560.0 L 364.4,559.6 L 370.4,560.6 L 376.4,562.3 L 382.4,562.2 L 388.5,561.8 L 394.5,562.0 L 400.5,562.0 L 406.5,562.4 L 412.5,562.0 L 418.5,562.8 L 424.5,563.1 L 430.5,562.2 L 436.6,562.9 L 442.6,562.9 L 448.6,564.4 L 454.6,563.4 L 460.6,564.6 L 466.6,564.7 L 472.6,563.6 L 478.6,564.9 L 484.7,564.6 L 490.7,564.1 L 496.7,564.1 L 502.7,565.1 L 508.7,563.9 L 514.7,564.1 L 520.7,563.3 L 526.7,563.1 L 532.8,563.2 L 538.8,561.2 L 544.8,560.4 L 550.8,559.7 L 556.8,559.3 L 562.8,558.4 L 568.8,558.6 L 574.8,558.4 L 580.8,558.6 L 586.9,559.7 L 592.9,559.8 L 598.9,560.7 L 604.9,561.1 L 610.9,563.2 L 616.9,564.1 L 622.9,565.3 L 628.9,569.0 L 635.0,570.9 L 641.0,573.2 L 647.0,577.7 L 653.0,577.2 L 659.0,577.9 L 665.0,577.6 L 671.0,573.9 L 677.0,573.1 L 683.1,569.0 L 689.1,567.4 L 695.1,561.8 L 701.1,555.7 L 707.1,555.8 L 713.1,548.5 L 719.1,546.6 L 725.1,543.1 L 731.2,537.0 L 737.2,535.2 L 743.2,528.9 L 749.2,529.2 L 755.2,527.3 L 761.2,551.4 L 767.2,550.6 L 773.2,550.3 L 779.2,549.5 L 785.3,548.8 L 791.3,548.7 L 797.3,547.9 L 803.3,548.6 L 809.3,548.3 L 815.3,548.8 L 821.3,548.0 L 827.3,548.3 L 833.4,548.4 L 839.4,548.2 L 845.4,548.2 L 851.4,547.9 L 857.4,548.1 L 863.4,546.7 L 869.4,546.3 L 875.4,545.5 L 881.5,545.2 L 887.5,545.1 L 893.5,543.7 L 899.5,542.8 L 905.5,542.7 L 911.5,541.9 L 917.5,541.5 L 923.5,540.2 L 929.6,539.8 L 935.6,539.0 L 941.6,538.4 L 947.6,537.9 L 953.6,537.7 L 959.6,538.1 L 965.6,537.6 L 971.6,537.2 L 977.6,537.6 L 983.7,537.2 L 989.7,537.6 L 995.7,536.9 L 1001.7,536.9 L 1007.7,537.1 L 1013.7,537.6 L 1019.7,537.9 L 1025.7,538.1 L 1031.8,538.7 L 1037.8,538.9 L 1043.8,539.9 L 1049.8,541.3 L 1055.8,542.2 L 1061.8,543.6 L 1067.8,545.0 L 1073.8,546.2 L 1079.9,547.9 L 1085.9,548.8 L 1091.9,550.3 L 1097.9,551.3 L 1103.9,553.1 L 1109.9,557.2 L 1115.9,558.5 L 1121.9,560.2 L 1128.0,561.9 L 1134.0,564.5 L 1140.0,564.2 L 1146.0,564.4" stroke="#B45B3E" stroke-width="2.1" fill="none" stroke-linejoin="round" stroke-linecap="round" stroke-dasharray="8 5" opacity="0.9"/>
<rect x="160" y="606" width="992" height="104" rx="8" fill="#FFFFFF" stroke="#CBC6B8"/>
<line x1="160" y1="632.0" x2="1152" y2="632.0" stroke="#D8D5CA" stroke-width="1" opacity="0.65"/>
<line x1="160" y1="658.0" x2="1152" y2="658.0" stroke="#D8D5CA" stroke-width="1" opacity="0.65"/>
<line x1="160" y1="684.0" x2="1152" y2="684.0" stroke="#D8D5CA" stroke-width="1" opacity="0.65"/>
<line x1="160.0" y1="606" x2="160.0" y2="710" stroke="#D8D5CA" stroke-width="1" opacity="0.65"/>
<line x1="340.4" y1="606" x2="340.4" y2="710" stroke="#D8D5CA" stroke-width="1" opacity="0.65"/>
<line x1="520.7" y1="606" x2="520.7" y2="710" stroke="#D8D5CA" stroke-width="1" opacity="0.65"/>
<line x1="701.1" y1="606" x2="701.1" y2="710" stroke="#D8D5CA" stroke-width="1" opacity="0.65"/>
<line x1="881.5" y1="606" x2="881.5" y2="710" stroke="#D8D5CA" stroke-width="1" opacity="0.65"/>
<line x1="1061.8" y1="606" x2="1061.8" y2="710" stroke="#D8D5CA" stroke-width="1" opacity="0.65"/>
<line x1="1152.0" y1="606" x2="1152.0" y2="710" stroke="#D8D5CA" stroke-width="1" opacity="0.65"/>
<text x="142" y="640" fill="#24231F" font-family="Inter, Arial, sans-serif" font-size="16" font-weight="700" text-anchor="end">wrist roll</text>
<text x="142" y="661" fill="#6E695F" font-family="JetBrains Mono, Consolas, monospace" font-size="11" text-anchor="end">wrist_roll.pos</text>
<path d="M 160.0,675.2 L 166.0,675.2 L 172.0,675.2 L 178.0,665.6 L 184.0,660.8 L 190.1,657.2 L 196.1,654.8 L 202.1,654.8 L 208.1,654.8 L 214.1,654.8 L 220.1,654.8 L 226.1,654.8 L 232.1,654.8 L 238.2,654.8 L 244.2,654.8 L 250.2,654.8 L 256.2,654.8 L 262.2,654.8 L 268.2,654.8 L 274.2,654.8 L 280.2,654.8 L 286.3,653.6 L 292.3,653.6 L 298.3,653.6 L 304.3,653.6 L 310.3,653.6 L 316.3,653.6 L 322.3,653.6 L 328.3,653.6 L 334.4,653.6 L 340.4,653.6 L 346.4,653.6 L 352.4,653.6 L 358.4,653.6 L 364.4,653.6 L 370.4,653.6 L 376.4,653.6 L 382.4,653.6 L 388.5,653.6 L 394.5,652.4 L 400.5,651.2 L 406.5,651.2 L 412.5,651.2 L 418.5,651.2 L 424.5,651.2 L 430.5,651.2 L 436.6,651.2 L 442.6,651.2 L 448.6,651.2 L 454.6,651.2 L 460.6,651.2 L 466.6,650.0 L 472.6,646.4 L 478.6,644.0 L 484.7,644.0 L 490.7,641.6 L 496.7,641.6 L 502.7,641.6 L 508.7,639.2 L 514.7,639.2 L 520.7,639.2 L 526.7,639.2 L 532.8,639.2 L 538.8,639.2 L 544.8,639.2 L 550.8,638.0 L 556.8,632.0 L 562.8,626.0 L 568.8,623.6 L 574.8,622.4 L 580.8,622.4 L 586.9,622.4 L 592.9,622.4 L 598.9,622.4 L 604.9,622.4 L 610.9,622.4 L 616.9,622.4 L 622.9,622.4 L 628.9,622.4 L 635.0,622.4 L 641.0,622.4 L 647.0,627.2 L 653.0,627.2 L 659.0,627.2 L 665.0,627.2 L 671.0,627.2 L 677.0,627.2 L 683.1,627.2 L 689.1,627.2 L 695.1,627.2 L 701.1,627.2 L 707.1,627.2 L 713.1,628.4 L 719.1,628.4 L 725.1,628.4 L 731.2,628.4 L 737.2,630.8 L 743.2,636.8 L 749.2,640.4 L 755.2,644.0 L 761.2,648.8 L 767.2,652.4 L 773.2,654.8 L 779.2,648.8 L 785.3,647.6 L 791.3,647.6 L 797.3,647.6 L 803.3,647.6 L 809.3,647.6 L 815.3,647.6 L 821.3,652.4 L 827.3,657.2 L 833.4,659.6 L 839.4,662.0 L 845.4,664.4 L 851.4,666.8 L 857.4,670.4 L 863.4,672.8 L 869.4,674.0 L 875.4,676.4 L 881.5,681.2 L 887.5,682.4 L 893.5,684.8 L 899.5,687.1 L 905.5,690.7 L 911.5,691.9 L 917.5,693.1 L 923.5,693.1 L 929.6,694.3 L 935.6,695.5 L 941.6,695.5 L 947.6,695.5 L 953.6,695.5 L 959.6,695.5 L 965.6,695.5 L 971.6,695.5 L 977.6,691.9 L 983.7,689.5 L 989.7,689.5 L 995.7,689.5 L 1001.7,689.5 L 1007.7,689.5 L 1013.7,688.3 L 1019.7,688.3 L 1025.7,688.3 L 1031.8,688.3 L 1037.8,688.3 L 1043.8,691.9 L 1049.8,691.9 L 1055.8,689.5 L 1061.8,688.3 L 1067.8,684.8 L 1073.8,684.8 L 1079.9,684.8 L 1085.9,684.8 L 1091.9,684.8 L 1097.9,684.8 L 1103.9,681.2 L 1109.9,675.2 L 1115.9,670.4 L 1121.9,666.8 L 1128.0,663.2 L 1134.0,660.8 L 1140.0,658.4 L 1146.0,658.4" stroke="#2F6F73" stroke-width="2.4" fill="none" stroke-linejoin="round" stroke-linecap="round"/>
<path d="M 160.0,648.7 L 166.0,649.1 L 172.0,649.9 L 178.0,649.9 L 184.0,649.4 L 190.1,649.2 L 196.1,644.9 L 202.1,647.0 L 208.1,646.2 L 214.1,645.3 L 220.1,645.2 L 226.1,643.2 L 232.1,641.9 L 238.2,643.7 L 244.2,642.3 L 250.2,640.5 L 256.2,643.5 L 262.2,643.8 L 268.2,644.9 L 274.2,645.2 L 280.2,645.6 L 286.3,646.5 L 292.3,645.1 L 298.3,644.5 L 304.3,649.3 L 310.3,648.1 L 316.3,649.1 L 322.3,649.7 L 328.3,650.3 L 334.4,650.9 L 340.4,648.2 L 346.4,651.5 L 352.4,648.7 L 358.4,648.5 L 364.4,648.2 L 370.4,651.3 L 376.4,646.1 L 382.4,647.5 L 388.5,646.4 L 394.5,646.9 L 400.5,647.2 L 406.5,645.1 L 412.5,645.7 L 418.5,643.1 L 424.5,644.2 L 430.5,644.2 L 436.6,643.0 L 442.6,642.8 L 448.6,639.6 L 454.6,639.6 L 460.6,638.5 L 466.6,638.2 L 472.6,639.3 L 478.6,637.9 L 484.7,636.7 L 490.7,634.4 L 496.7,635.0 L 502.7,633.6 L 508.7,633.1 L 514.7,631.3 L 520.7,629.6 L 526.7,627.2 L 532.8,627.8 L 538.8,622.5 L 544.8,621.1 L 550.8,619.6 L 556.8,621.2 L 562.8,621.3 L 568.8,620.0 L 574.8,620.6 L 580.8,620.6 L 586.9,621.8 L 592.9,623.1 L 598.9,623.4 L 604.9,623.7 L 610.9,625.4 L 616.9,626.1 L 622.9,628.2 L 628.9,630.0 L 635.0,630.8 L 641.0,631.1 L 647.0,630.4 L 653.0,632.1 L 659.0,629.9 L 665.0,632.1 L 671.0,630.4 L 677.0,631.0 L 683.1,630.4 L 689.1,630.7 L 695.1,631.7 L 701.1,634.5 L 707.1,635.5 L 713.1,636.7 L 719.1,638.4 L 725.1,642.7 L 731.2,645.6 L 737.2,647.2 L 743.2,654.0 L 749.2,654.1 L 755.2,658.9 L 761.2,639.6 L 767.2,641.8 L 773.2,644.7 L 779.2,648.0 L 785.3,649.9 L 791.3,653.3 L 797.3,655.3 L 803.3,658.1 L 809.3,660.8 L 815.3,662.7 L 821.3,665.2 L 827.3,666.5 L 833.4,670.1 L 839.4,670.7 L 845.4,673.2 L 851.4,675.8 L 857.4,677.8 L 863.4,681.8 L 869.4,684.3 L 875.4,685.6 L 881.5,688.2 L 887.5,691.4 L 893.5,693.2 L 899.5,692.5 L 905.5,695.0 L 911.5,695.4 L 917.5,695.6 L 923.5,695.1 L 929.6,696.4 L 935.6,695.1 L 941.6,695.3 L 947.6,696.1 L 953.6,695.4 L 959.6,694.6 L 965.6,694.1 L 971.6,693.4 L 977.6,693.0 L 983.7,692.8 L 989.7,691.6 L 995.7,692.3 L 1001.7,690.8 L 1007.7,690.0 L 1013.7,689.4 L 1019.7,687.4 L 1025.7,686.6 L 1031.8,684.6 L 1037.8,683.1 L 1043.8,682.2 L 1049.8,680.5 L 1055.8,679.5 L 1061.8,680.6 L 1067.8,680.8 L 1073.8,680.1 L 1079.9,675.0 L 1085.9,672.9 L 1091.9,665.9 L 1097.9,663.2 L 1103.9,660.1 L 1109.9,657.2 L 1115.9,654.7 L 1121.9,654.8 L 1128.0,655.7 L 1134.0,655.9 L 1140.0,659.2 L 1146.0,659.4" stroke="#B45B3E" stroke-width="2.1" fill="none" stroke-linejoin="round" stroke-linecap="round" stroke-dasharray="8 5" opacity="0.9"/>
<rect x="160" y="728" width="992" height="104" rx="8" fill="#FFFFFF" stroke="#CBC6B8"/>
<line x1="160" y1="754.0" x2="1152" y2="754.0" stroke="#D8D5CA" stroke-width="1" opacity="0.65"/>
<line x1="160" y1="780.0" x2="1152" y2="780.0" stroke="#D8D5CA" stroke-width="1" opacity="0.65"/>
<line x1="160" y1="806.0" x2="1152" y2="806.0" stroke="#D8D5CA" stroke-width="1" opacity="0.65"/>
<line x1="160.0" y1="728" x2="160.0" y2="832" stroke="#D8D5CA" stroke-width="1" opacity="0.65"/>
<text x="160.0" y="858" fill="#6E695F" font-family="JetBrains Mono, Consolas, monospace" font-size="12" text-anchor="middle">0s</text>
<line x1="340.4" y1="728" x2="340.4" y2="832" stroke="#D8D5CA" stroke-width="1" opacity="0.65"/>
<text x="340.4" y="858" fill="#6E695F" font-family="JetBrains Mono, Consolas, monospace" font-size="12" text-anchor="middle">1s</text>
<line x1="520.7" y1="728" x2="520.7" y2="832" stroke="#D8D5CA" stroke-width="1" opacity="0.65"/>
<text x="520.7" y="858" fill="#6E695F" font-family="JetBrains Mono, Consolas, monospace" font-size="12" text-anchor="middle">2s</text>
<line x1="701.1" y1="728" x2="701.1" y2="832" stroke="#D8D5CA" stroke-width="1" opacity="0.65"/>
<text x="701.1" y="858" fill="#6E695F" font-family="JetBrains Mono, Consolas, monospace" font-size="12" text-anchor="middle">3s</text>
<line x1="881.5" y1="728" x2="881.5" y2="832" stroke="#D8D5CA" stroke-width="1" opacity="0.65"/>
<text x="881.5" y="858" fill="#6E695F" font-family="JetBrains Mono, Consolas, monospace" font-size="12" text-anchor="middle">4s</text>
<line x1="1061.8" y1="728" x2="1061.8" y2="832" stroke="#D8D5CA" stroke-width="1" opacity="0.65"/>
<text x="1061.8" y="858" fill="#6E695F" font-family="JetBrains Mono, Consolas, monospace" font-size="12" text-anchor="middle">5s</text>
<line x1="1152.0" y1="728" x2="1152.0" y2="832" stroke="#D8D5CA" stroke-width="1" opacity="0.65"/>
<text x="1152.0" y="858" fill="#6E695F" font-family="JetBrains Mono, Consolas, monospace" font-size="12" text-anchor="middle">5.5s</text>
<text x="142" y="762" fill="#24231F" font-family="Inter, Arial, sans-serif" font-size="16" font-weight="700" text-anchor="end">gripper</text>
<text x="142" y="783" fill="#6E695F" font-family="JetBrains Mono, Consolas, monospace" font-size="11" text-anchor="end">gripper.pos</text>
<path d="M 160.0,758.0 L 166.0,758.0 L 172.0,758.1 L 178.0,759.5 L 184.0,760.7 L 190.1,761.3 L 196.1,761.7 L 202.1,762.0 L 208.1,762.2 L 214.1,762.3 L 220.1,762.4 L 226.1,762.5 L 232.1,762.5 L 238.2,762.5 L 244.2,762.4 L 250.2,762.4 L 256.2,762.4 L 262.2,762.4 L 268.2,762.4 L 274.2,762.5 L 280.2,762.7 L 286.3,762.9 L 292.3,763.1 L 298.3,763.1 L 304.3,763.1 L 310.3,763.1 L 316.3,763.1 L 322.3,763.1 L 328.3,763.1 L 334.4,763.1 L 340.4,763.1 L 346.4,763.1 L 352.4,763.1 L 358.4,763.1 L 364.4,763.1 L 370.4,762.8 L 376.4,762.5 L 382.4,762.4 L 388.5,762.2 L 394.5,761.9 L 400.5,761.7 L 406.5,761.4 L 412.5,761.2 L 418.5,760.9 L 424.5,760.7 L 430.5,760.5 L 436.6,760.4 L 442.6,760.4 L 448.6,760.4 L 454.6,760.4 L 460.6,760.4 L 466.6,760.4 L 472.6,760.2 L 478.6,760.2 L 484.7,760.1 L 490.7,760.1 L 496.7,760.1 L 502.7,760.1 L 508.7,760.2 L 514.7,760.5 L 520.7,760.9 L 526.7,761.4 L 532.8,762.3 L 538.8,763.9 L 544.8,766.9 L 550.8,769.3 L 556.8,771.1 L 562.8,773.3 L 568.8,774.9 L 574.8,775.4 L 580.8,775.6 L 586.9,775.7 L 592.9,775.7 L 598.9,775.7 L 604.9,775.7 L 610.9,775.7 L 616.9,775.7 L 622.9,775.7 L 628.9,775.8 L 635.0,775.8 L 641.0,776.0 L 647.0,776.1 L 653.0,776.2 L 659.0,776.2 L 665.0,776.2 L 671.0,776.2 L 677.0,776.2 L 683.1,776.2 L 689.1,776.2 L 695.1,776.2 L 701.1,776.2 L 707.1,776.2 L 713.1,776.2 L 719.1,776.2 L 725.1,776.2 L 731.2,776.2 L 737.2,776.2 L 743.2,776.2 L 749.2,776.2 L 755.2,776.2 L 761.2,776.2 L 767.2,776.2 L 773.2,776.2 L 779.2,776.2 L 785.3,776.2 L 791.3,776.2 L 797.3,776.2 L 803.3,776.2 L 809.3,776.2 L 815.3,776.2 L 821.3,776.2 L 827.3,776.2 L 833.4,776.2 L 839.4,776.2 L 845.4,776.2 L 851.4,776.2 L 857.4,776.2 L 863.4,776.2 L 869.4,776.3 L 875.4,776.3 L 881.5,776.3 L 887.5,776.3 L 893.5,776.3 L 899.5,776.3 L 905.5,776.3 L 911.5,776.3 L 917.5,776.3 L 923.5,776.3 L 929.6,776.3 L 935.6,776.3 L 941.6,776.3 L 947.6,776.3 L 953.6,776.3 L 959.6,776.3 L 965.6,776.3 L 971.6,776.3 L 977.6,776.3 L 983.7,776.3 L 989.7,776.3 L 995.7,776.3 L 1001.7,776.3 L 1007.7,776.3 L 1013.7,776.3 L 1019.7,776.3 L 1025.7,776.3 L 1031.8,776.3 L 1037.8,776.3 L 1043.8,776.3 L 1049.8,776.3 L 1055.8,776.3 L 1061.8,776.3 L 1067.8,776.3 L 1073.8,776.3 L 1079.9,776.3 L 1085.9,776.3 L 1091.9,776.2 L 1097.9,774.4 L 1103.9,771.3 L 1109.9,767.4 L 1115.9,763.7 L 1121.9,759.6 L 1128.0,756.0 L 1134.0,752.1 L 1140.0,748.2 L 1146.0,745.1" stroke="#2F6F73" stroke-width="2.4" fill="none" stroke-linejoin="round" stroke-linecap="round"/>
<path d="M 160.0,762.7 L 166.0,762.6 L 172.0,762.5 L 178.0,762.2 L 184.0,762.5 L 190.1,762.5 L 196.1,762.4 L 202.1,762.6 L 208.1,762.6 L 214.1,762.0 L 220.1,762.7 L 226.1,762.3 L 232.1,762.3 L 238.2,762.8 L 244.2,762.8 L 250.2,762.7 L 256.2,763.0 L 262.2,763.2 L 268.2,763.0 L 274.2,763.6 L 280.2,763.3 L 286.3,763.2 L 292.3,763.4 L 298.3,763.4 L 304.3,763.5 L 310.3,763.4 L 316.3,763.2 L 322.3,763.4 L 328.3,762.9 L 334.4,762.8 L 340.4,763.0 L 346.4,762.6 L 352.4,762.6 L 358.4,762.1 L 364.4,762.0 L 370.4,761.8 L 376.4,761.6 L 382.4,761.3 L 388.5,760.9 L 394.5,761.0 L 400.5,760.6 L 406.5,760.3 L 412.5,760.2 L 418.5,760.2 L 424.5,759.9 L 430.5,760.0 L 436.6,759.9 L 442.6,759.9 L 448.6,760.0 L 454.6,759.5 L 460.6,759.8 L 466.6,759.8 L 472.6,759.9 L 478.6,759.9 L 484.7,760.0 L 490.7,760.6 L 496.7,760.6 L 502.7,761.2 L 508.7,761.7 L 514.7,763.3 L 520.7,765.7 L 526.7,771.8 L 532.8,771.4 L 538.8,784.8 L 544.8,794.0 L 550.8,799.8 L 556.8,806.2 L 562.8,810.3 L 568.8,816.6 L 574.8,818.5 L 580.8,820.1 L 586.9,821.2 L 592.9,821.5 L 598.9,821.6 L 604.9,821.6 L 610.9,821.9 L 616.9,821.9 L 622.9,821.9 L 628.9,821.9 L 635.0,821.9 L 641.0,821.8 L 647.0,821.3 L 653.0,821.1 L 659.0,821.0 L 665.0,821.1 L 671.0,820.9 L 677.0,820.9 L 683.1,820.7 L 689.1,820.6 L 695.1,820.5 L 701.1,820.3 L 707.1,820.3 L 713.1,820.0 L 719.1,820.0 L 725.1,819.8 L 731.2,819.9 L 737.2,820.0 L 743.2,820.2 L 749.2,819.9 L 755.2,820.1 L 761.2,819.1 L 767.2,819.2 L 773.2,819.3 L 779.2,819.3 L 785.3,819.5 L 791.3,819.7 L 797.3,819.7 L 803.3,820.0 L 809.3,820.0 L 815.3,820.3 L 821.3,820.3 L 827.3,820.3 L 833.4,820.1 L 839.4,820.3 L 845.4,820.1 L 851.4,820.1 L 857.4,820.0 L 863.4,819.8 L 869.4,819.8 L 875.4,819.8 L 881.5,819.7 L 887.5,819.8 L 893.5,819.6 L 899.5,819.6 L 905.5,819.6 L 911.5,819.6 L 917.5,819.7 L 923.5,819.6 L 929.6,819.6 L 935.6,819.6 L 941.6,819.7 L 947.6,819.9 L 953.6,819.8 L 959.6,820.0 L 965.6,820.2 L 971.6,820.3 L 977.6,820.4 L 983.7,820.7 L 989.7,820.8 L 995.7,820.9 L 1001.7,821.2 L 1007.7,821.2 L 1013.7,821.3 L 1019.7,821.5 L 1025.7,821.6 L 1031.8,821.3 L 1037.8,821.1 L 1043.8,819.0 L 1049.8,812.7 L 1055.8,808.7 L 1061.8,797.7 L 1067.8,784.3 L 1073.8,768.3 L 1079.9,758.2 L 1085.9,753.4 L 1091.9,745.8 L 1097.9,743.4 L 1103.9,741.8 L 1109.9,739.5 L 1115.9,738.9 L 1121.9,738.4 L 1128.0,738.3 L 1134.0,738.1 L 1140.0,738.5 L 1146.0,738.7" stroke="#B45B3E" stroke-width="2.1" fill="none" stroke-linejoin="round" stroke-linecap="round" stroke-dasharray="8 5" opacity="0.9"/>
<text x="656.0" y="906" fill="#6E695F" font-family="JetBrains Mono, Consolas, monospace" font-size="12" text-anchor="middle">time since rollout start</text>
</svg>
